%TF.GenerationSoftware,KiCad,Pcbnew,9.0.0*%
%TF.CreationDate,2025-03-30T19:28:59+05:30*%
%TF.ProjectId,soil_moisture,736f696c-5f6d-46f6-9973-747572652e6b,rev?*%
%TF.SameCoordinates,Original*%
%TF.FileFunction,Legend,Top*%
%TF.FilePolarity,Positive*%
%FSLAX46Y46*%
G04 Gerber Fmt 4.6, Leading zero omitted, Abs format (unit mm)*
G04 Created by KiCad (PCBNEW 9.0.0) date 2025-03-30 19:28:59*
%MOMM*%
%LPD*%
G01*
G04 APERTURE LIST*
%ADD10C,0.100000*%
%ADD11C,0.150000*%
%ADD12C,0.120000*%
G04 APERTURE END LIST*
D10*
X142756265Y-112824800D02*
X142899122Y-112872419D01*
X142899122Y-112872419D02*
X143137217Y-112872419D01*
X143137217Y-112872419D02*
X143232455Y-112824800D01*
X143232455Y-112824800D02*
X143280074Y-112777180D01*
X143280074Y-112777180D02*
X143327693Y-112681942D01*
X143327693Y-112681942D02*
X143327693Y-112586704D01*
X143327693Y-112586704D02*
X143280074Y-112491466D01*
X143280074Y-112491466D02*
X143232455Y-112443847D01*
X143232455Y-112443847D02*
X143137217Y-112396228D01*
X143137217Y-112396228D02*
X142946741Y-112348609D01*
X142946741Y-112348609D02*
X142851503Y-112300990D01*
X142851503Y-112300990D02*
X142803884Y-112253371D01*
X142803884Y-112253371D02*
X142756265Y-112158133D01*
X142756265Y-112158133D02*
X142756265Y-112062895D01*
X142756265Y-112062895D02*
X142803884Y-111967657D01*
X142803884Y-111967657D02*
X142851503Y-111920038D01*
X142851503Y-111920038D02*
X142946741Y-111872419D01*
X142946741Y-111872419D02*
X143184836Y-111872419D01*
X143184836Y-111872419D02*
X143327693Y-111920038D01*
X143946741Y-111872419D02*
X144137217Y-111872419D01*
X144137217Y-111872419D02*
X144232455Y-111920038D01*
X144232455Y-111920038D02*
X144327693Y-112015276D01*
X144327693Y-112015276D02*
X144375312Y-112205752D01*
X144375312Y-112205752D02*
X144375312Y-112539085D01*
X144375312Y-112539085D02*
X144327693Y-112729561D01*
X144327693Y-112729561D02*
X144232455Y-112824800D01*
X144232455Y-112824800D02*
X144137217Y-112872419D01*
X144137217Y-112872419D02*
X143946741Y-112872419D01*
X143946741Y-112872419D02*
X143851503Y-112824800D01*
X143851503Y-112824800D02*
X143756265Y-112729561D01*
X143756265Y-112729561D02*
X143708646Y-112539085D01*
X143708646Y-112539085D02*
X143708646Y-112205752D01*
X143708646Y-112205752D02*
X143756265Y-112015276D01*
X143756265Y-112015276D02*
X143851503Y-111920038D01*
X143851503Y-111920038D02*
X143946741Y-111872419D01*
X144803884Y-112872419D02*
X144803884Y-111872419D01*
X145756264Y-112872419D02*
X145280074Y-112872419D01*
X145280074Y-112872419D02*
X145280074Y-111872419D01*
X146851503Y-112872419D02*
X146851503Y-111872419D01*
X146851503Y-111872419D02*
X147184836Y-112586704D01*
X147184836Y-112586704D02*
X147518169Y-111872419D01*
X147518169Y-111872419D02*
X147518169Y-112872419D01*
X148184836Y-111872419D02*
X148375312Y-111872419D01*
X148375312Y-111872419D02*
X148470550Y-111920038D01*
X148470550Y-111920038D02*
X148565788Y-112015276D01*
X148565788Y-112015276D02*
X148613407Y-112205752D01*
X148613407Y-112205752D02*
X148613407Y-112539085D01*
X148613407Y-112539085D02*
X148565788Y-112729561D01*
X148565788Y-112729561D02*
X148470550Y-112824800D01*
X148470550Y-112824800D02*
X148375312Y-112872419D01*
X148375312Y-112872419D02*
X148184836Y-112872419D01*
X148184836Y-112872419D02*
X148089598Y-112824800D01*
X148089598Y-112824800D02*
X147994360Y-112729561D01*
X147994360Y-112729561D02*
X147946741Y-112539085D01*
X147946741Y-112539085D02*
X147946741Y-112205752D01*
X147946741Y-112205752D02*
X147994360Y-112015276D01*
X147994360Y-112015276D02*
X148089598Y-111920038D01*
X148089598Y-111920038D02*
X148184836Y-111872419D01*
X149041979Y-112872419D02*
X149041979Y-111872419D01*
X149470550Y-112824800D02*
X149613407Y-112872419D01*
X149613407Y-112872419D02*
X149851502Y-112872419D01*
X149851502Y-112872419D02*
X149946740Y-112824800D01*
X149946740Y-112824800D02*
X149994359Y-112777180D01*
X149994359Y-112777180D02*
X150041978Y-112681942D01*
X150041978Y-112681942D02*
X150041978Y-112586704D01*
X150041978Y-112586704D02*
X149994359Y-112491466D01*
X149994359Y-112491466D02*
X149946740Y-112443847D01*
X149946740Y-112443847D02*
X149851502Y-112396228D01*
X149851502Y-112396228D02*
X149661026Y-112348609D01*
X149661026Y-112348609D02*
X149565788Y-112300990D01*
X149565788Y-112300990D02*
X149518169Y-112253371D01*
X149518169Y-112253371D02*
X149470550Y-112158133D01*
X149470550Y-112158133D02*
X149470550Y-112062895D01*
X149470550Y-112062895D02*
X149518169Y-111967657D01*
X149518169Y-111967657D02*
X149565788Y-111920038D01*
X149565788Y-111920038D02*
X149661026Y-111872419D01*
X149661026Y-111872419D02*
X149899121Y-111872419D01*
X149899121Y-111872419D02*
X150041978Y-111920038D01*
X150327693Y-111872419D02*
X150899121Y-111872419D01*
X150613407Y-112872419D02*
X150613407Y-111872419D01*
X151232455Y-111872419D02*
X151232455Y-112681942D01*
X151232455Y-112681942D02*
X151280074Y-112777180D01*
X151280074Y-112777180D02*
X151327693Y-112824800D01*
X151327693Y-112824800D02*
X151422931Y-112872419D01*
X151422931Y-112872419D02*
X151613407Y-112872419D01*
X151613407Y-112872419D02*
X151708645Y-112824800D01*
X151708645Y-112824800D02*
X151756264Y-112777180D01*
X151756264Y-112777180D02*
X151803883Y-112681942D01*
X151803883Y-112681942D02*
X151803883Y-111872419D01*
X152851502Y-112872419D02*
X152518169Y-112396228D01*
X152280074Y-112872419D02*
X152280074Y-111872419D01*
X152280074Y-111872419D02*
X152661026Y-111872419D01*
X152661026Y-111872419D02*
X152756264Y-111920038D01*
X152756264Y-111920038D02*
X152803883Y-111967657D01*
X152803883Y-111967657D02*
X152851502Y-112062895D01*
X152851502Y-112062895D02*
X152851502Y-112205752D01*
X152851502Y-112205752D02*
X152803883Y-112300990D01*
X152803883Y-112300990D02*
X152756264Y-112348609D01*
X152756264Y-112348609D02*
X152661026Y-112396228D01*
X152661026Y-112396228D02*
X152280074Y-112396228D01*
X153280074Y-112348609D02*
X153613407Y-112348609D01*
X153756264Y-112872419D02*
X153280074Y-112872419D01*
X153280074Y-112872419D02*
X153280074Y-111872419D01*
X153280074Y-111872419D02*
X153756264Y-111872419D01*
X154946741Y-112872419D02*
X154946741Y-111872419D01*
X154946741Y-111872419D02*
X155280074Y-112586704D01*
X155280074Y-112586704D02*
X155613407Y-111872419D01*
X155613407Y-111872419D02*
X155613407Y-112872419D01*
X156041979Y-112586704D02*
X156518169Y-112586704D01*
X155946741Y-112872419D02*
X156280074Y-111872419D01*
X156280074Y-111872419D02*
X156613407Y-112872419D01*
X156946741Y-112872419D02*
X156946741Y-111872419D01*
X156946741Y-111872419D02*
X157518169Y-112872419D01*
X157518169Y-112872419D02*
X157518169Y-111872419D01*
X157946741Y-112586704D02*
X158422931Y-112586704D01*
X157851503Y-112872419D02*
X158184836Y-111872419D01*
X158184836Y-111872419D02*
X158518169Y-112872419D01*
X159375312Y-111920038D02*
X159280074Y-111872419D01*
X159280074Y-111872419D02*
X159137217Y-111872419D01*
X159137217Y-111872419D02*
X158994360Y-111920038D01*
X158994360Y-111920038D02*
X158899122Y-112015276D01*
X158899122Y-112015276D02*
X158851503Y-112110514D01*
X158851503Y-112110514D02*
X158803884Y-112300990D01*
X158803884Y-112300990D02*
X158803884Y-112443847D01*
X158803884Y-112443847D02*
X158851503Y-112634323D01*
X158851503Y-112634323D02*
X158899122Y-112729561D01*
X158899122Y-112729561D02*
X158994360Y-112824800D01*
X158994360Y-112824800D02*
X159137217Y-112872419D01*
X159137217Y-112872419D02*
X159232455Y-112872419D01*
X159232455Y-112872419D02*
X159375312Y-112824800D01*
X159375312Y-112824800D02*
X159422931Y-112777180D01*
X159422931Y-112777180D02*
X159422931Y-112443847D01*
X159422931Y-112443847D02*
X159232455Y-112443847D01*
X159851503Y-112348609D02*
X160184836Y-112348609D01*
X160327693Y-112872419D02*
X159851503Y-112872419D01*
X159851503Y-112872419D02*
X159851503Y-111872419D01*
X159851503Y-111872419D02*
X160327693Y-111872419D01*
X160756265Y-112872419D02*
X160756265Y-111872419D01*
X160756265Y-111872419D02*
X161089598Y-112586704D01*
X161089598Y-112586704D02*
X161422931Y-111872419D01*
X161422931Y-111872419D02*
X161422931Y-112872419D01*
X161899122Y-112348609D02*
X162232455Y-112348609D01*
X162375312Y-112872419D02*
X161899122Y-112872419D01*
X161899122Y-112872419D02*
X161899122Y-111872419D01*
X161899122Y-111872419D02*
X162375312Y-111872419D01*
X162803884Y-112872419D02*
X162803884Y-111872419D01*
X162803884Y-111872419D02*
X163375312Y-112872419D01*
X163375312Y-112872419D02*
X163375312Y-111872419D01*
X163708646Y-111872419D02*
X164280074Y-111872419D01*
X163994360Y-112872419D02*
X163994360Y-111872419D01*
D11*
X134666666Y-100084819D02*
X134666666Y-100799104D01*
X134666666Y-100799104D02*
X134619047Y-100941961D01*
X134619047Y-100941961D02*
X134523809Y-101037200D01*
X134523809Y-101037200D02*
X134380952Y-101084819D01*
X134380952Y-101084819D02*
X134285714Y-101084819D01*
X135666666Y-101084819D02*
X135095238Y-101084819D01*
X135380952Y-101084819D02*
X135380952Y-100084819D01*
X135380952Y-100084819D02*
X135285714Y-100227676D01*
X135285714Y-100227676D02*
X135190476Y-100322914D01*
X135190476Y-100322914D02*
X135095238Y-100370533D01*
X133904761Y-84490057D02*
X133809523Y-84442438D01*
X133809523Y-84442438D02*
X133714285Y-84347200D01*
X133714285Y-84347200D02*
X133571428Y-84204342D01*
X133571428Y-84204342D02*
X133476190Y-84156723D01*
X133476190Y-84156723D02*
X133380952Y-84156723D01*
X133428571Y-84394819D02*
X133333333Y-84347200D01*
X133333333Y-84347200D02*
X133238095Y-84251961D01*
X133238095Y-84251961D02*
X133190476Y-84061485D01*
X133190476Y-84061485D02*
X133190476Y-83728152D01*
X133190476Y-83728152D02*
X133238095Y-83537676D01*
X133238095Y-83537676D02*
X133333333Y-83442438D01*
X133333333Y-83442438D02*
X133428571Y-83394819D01*
X133428571Y-83394819D02*
X133619047Y-83394819D01*
X133619047Y-83394819D02*
X133714285Y-83442438D01*
X133714285Y-83442438D02*
X133809523Y-83537676D01*
X133809523Y-83537676D02*
X133857142Y-83728152D01*
X133857142Y-83728152D02*
X133857142Y-84061485D01*
X133857142Y-84061485D02*
X133809523Y-84251961D01*
X133809523Y-84251961D02*
X133714285Y-84347200D01*
X133714285Y-84347200D02*
X133619047Y-84394819D01*
X133619047Y-84394819D02*
X133428571Y-84394819D01*
X134809523Y-84394819D02*
X134238095Y-84394819D01*
X134523809Y-84394819D02*
X134523809Y-83394819D01*
X134523809Y-83394819D02*
X134428571Y-83537676D01*
X134428571Y-83537676D02*
X134333333Y-83632914D01*
X134333333Y-83632914D02*
X134238095Y-83680533D01*
X149183333Y-67234819D02*
X148850000Y-66758628D01*
X148611905Y-67234819D02*
X148611905Y-66234819D01*
X148611905Y-66234819D02*
X148992857Y-66234819D01*
X148992857Y-66234819D02*
X149088095Y-66282438D01*
X149088095Y-66282438D02*
X149135714Y-66330057D01*
X149135714Y-66330057D02*
X149183333Y-66425295D01*
X149183333Y-66425295D02*
X149183333Y-66568152D01*
X149183333Y-66568152D02*
X149135714Y-66663390D01*
X149135714Y-66663390D02*
X149088095Y-66711009D01*
X149088095Y-66711009D02*
X148992857Y-66758628D01*
X148992857Y-66758628D02*
X148611905Y-66758628D01*
X150135714Y-67234819D02*
X149564286Y-67234819D01*
X149850000Y-67234819D02*
X149850000Y-66234819D01*
X149850000Y-66234819D02*
X149754762Y-66377676D01*
X149754762Y-66377676D02*
X149659524Y-66472914D01*
X149659524Y-66472914D02*
X149564286Y-66520533D01*
X153190476Y-82584819D02*
X153190476Y-81584819D01*
X153190476Y-81584819D02*
X153523809Y-82299104D01*
X153523809Y-82299104D02*
X153857142Y-81584819D01*
X153857142Y-81584819D02*
X153857142Y-82584819D01*
X154857142Y-82584819D02*
X154285714Y-82584819D01*
X154571428Y-82584819D02*
X154571428Y-81584819D01*
X154571428Y-81584819D02*
X154476190Y-81727676D01*
X154476190Y-81727676D02*
X154380952Y-81822914D01*
X154380952Y-81822914D02*
X154285714Y-81870533D01*
X145833333Y-76454819D02*
X145500000Y-75978628D01*
X145261905Y-76454819D02*
X145261905Y-75454819D01*
X145261905Y-75454819D02*
X145642857Y-75454819D01*
X145642857Y-75454819D02*
X145738095Y-75502438D01*
X145738095Y-75502438D02*
X145785714Y-75550057D01*
X145785714Y-75550057D02*
X145833333Y-75645295D01*
X145833333Y-75645295D02*
X145833333Y-75788152D01*
X145833333Y-75788152D02*
X145785714Y-75883390D01*
X145785714Y-75883390D02*
X145738095Y-75931009D01*
X145738095Y-75931009D02*
X145642857Y-75978628D01*
X145642857Y-75978628D02*
X145261905Y-75978628D01*
X146214286Y-75550057D02*
X146261905Y-75502438D01*
X146261905Y-75502438D02*
X146357143Y-75454819D01*
X146357143Y-75454819D02*
X146595238Y-75454819D01*
X146595238Y-75454819D02*
X146690476Y-75502438D01*
X146690476Y-75502438D02*
X146738095Y-75550057D01*
X146738095Y-75550057D02*
X146785714Y-75645295D01*
X146785714Y-75645295D02*
X146785714Y-75740533D01*
X146785714Y-75740533D02*
X146738095Y-75883390D01*
X146738095Y-75883390D02*
X146166667Y-76454819D01*
X146166667Y-76454819D02*
X146785714Y-76454819D01*
X143666666Y-82849819D02*
X143666666Y-83564104D01*
X143666666Y-83564104D02*
X143619047Y-83706961D01*
X143619047Y-83706961D02*
X143523809Y-83802200D01*
X143523809Y-83802200D02*
X143380952Y-83849819D01*
X143380952Y-83849819D02*
X143285714Y-83849819D01*
X144095238Y-82945057D02*
X144142857Y-82897438D01*
X144142857Y-82897438D02*
X144238095Y-82849819D01*
X144238095Y-82849819D02*
X144476190Y-82849819D01*
X144476190Y-82849819D02*
X144571428Y-82897438D01*
X144571428Y-82897438D02*
X144619047Y-82945057D01*
X144619047Y-82945057D02*
X144666666Y-83040295D01*
X144666666Y-83040295D02*
X144666666Y-83135533D01*
X144666666Y-83135533D02*
X144619047Y-83278390D01*
X144619047Y-83278390D02*
X144047619Y-83849819D01*
X144047619Y-83849819D02*
X144666666Y-83849819D01*
X111905714Y-65809104D02*
X112381904Y-65809104D01*
X111810476Y-66094819D02*
X112143809Y-65094819D01*
X112143809Y-65094819D02*
X112477142Y-66094819D01*
X113334285Y-66094819D02*
X112762857Y-66094819D01*
X113048571Y-66094819D02*
X113048571Y-65094819D01*
X113048571Y-65094819D02*
X112953333Y-65237676D01*
X112953333Y-65237676D02*
X112858095Y-65332914D01*
X112858095Y-65332914D02*
X112762857Y-65380533D01*
X111358095Y-105734819D02*
X111358095Y-106544342D01*
X111358095Y-106544342D02*
X111405714Y-106639580D01*
X111405714Y-106639580D02*
X111453333Y-106687200D01*
X111453333Y-106687200D02*
X111548571Y-106734819D01*
X111548571Y-106734819D02*
X111739047Y-106734819D01*
X111739047Y-106734819D02*
X111834285Y-106687200D01*
X111834285Y-106687200D02*
X111881904Y-106639580D01*
X111881904Y-106639580D02*
X111929523Y-106544342D01*
X111929523Y-106544342D02*
X111929523Y-105734819D01*
X112358095Y-106687200D02*
X112500952Y-106734819D01*
X112500952Y-106734819D02*
X112739047Y-106734819D01*
X112739047Y-106734819D02*
X112834285Y-106687200D01*
X112834285Y-106687200D02*
X112881904Y-106639580D01*
X112881904Y-106639580D02*
X112929523Y-106544342D01*
X112929523Y-106544342D02*
X112929523Y-106449104D01*
X112929523Y-106449104D02*
X112881904Y-106353866D01*
X112881904Y-106353866D02*
X112834285Y-106306247D01*
X112834285Y-106306247D02*
X112739047Y-106258628D01*
X112739047Y-106258628D02*
X112548571Y-106211009D01*
X112548571Y-106211009D02*
X112453333Y-106163390D01*
X112453333Y-106163390D02*
X112405714Y-106115771D01*
X112405714Y-106115771D02*
X112358095Y-106020533D01*
X112358095Y-106020533D02*
X112358095Y-105925295D01*
X112358095Y-105925295D02*
X112405714Y-105830057D01*
X112405714Y-105830057D02*
X112453333Y-105782438D01*
X112453333Y-105782438D02*
X112548571Y-105734819D01*
X112548571Y-105734819D02*
X112786666Y-105734819D01*
X112786666Y-105734819D02*
X112929523Y-105782438D01*
X113691428Y-106211009D02*
X113834285Y-106258628D01*
X113834285Y-106258628D02*
X113881904Y-106306247D01*
X113881904Y-106306247D02*
X113929523Y-106401485D01*
X113929523Y-106401485D02*
X113929523Y-106544342D01*
X113929523Y-106544342D02*
X113881904Y-106639580D01*
X113881904Y-106639580D02*
X113834285Y-106687200D01*
X113834285Y-106687200D02*
X113739047Y-106734819D01*
X113739047Y-106734819D02*
X113358095Y-106734819D01*
X113358095Y-106734819D02*
X113358095Y-105734819D01*
X113358095Y-105734819D02*
X113691428Y-105734819D01*
X113691428Y-105734819D02*
X113786666Y-105782438D01*
X113786666Y-105782438D02*
X113834285Y-105830057D01*
X113834285Y-105830057D02*
X113881904Y-105925295D01*
X113881904Y-105925295D02*
X113881904Y-106020533D01*
X113881904Y-106020533D02*
X113834285Y-106115771D01*
X113834285Y-106115771D02*
X113786666Y-106163390D01*
X113786666Y-106163390D02*
X113691428Y-106211009D01*
X113691428Y-106211009D02*
X113358095Y-106211009D01*
X117761905Y-55254819D02*
X117761905Y-54254819D01*
X118333333Y-55254819D02*
X117904762Y-54683390D01*
X118333333Y-54254819D02*
X117761905Y-54826247D01*
X119285714Y-55254819D02*
X118714286Y-55254819D01*
X119000000Y-55254819D02*
X119000000Y-54254819D01*
X119000000Y-54254819D02*
X118904762Y-54397676D01*
X118904762Y-54397676D02*
X118809524Y-54492914D01*
X118809524Y-54492914D02*
X118714286Y-54540533D01*
X147761905Y-56484819D02*
X147761905Y-55484819D01*
X147761905Y-55484819D02*
X148000000Y-55484819D01*
X148000000Y-55484819D02*
X148142857Y-55532438D01*
X148142857Y-55532438D02*
X148238095Y-55627676D01*
X148238095Y-55627676D02*
X148285714Y-55722914D01*
X148285714Y-55722914D02*
X148333333Y-55913390D01*
X148333333Y-55913390D02*
X148333333Y-56056247D01*
X148333333Y-56056247D02*
X148285714Y-56246723D01*
X148285714Y-56246723D02*
X148238095Y-56341961D01*
X148238095Y-56341961D02*
X148142857Y-56437200D01*
X148142857Y-56437200D02*
X148000000Y-56484819D01*
X148000000Y-56484819D02*
X147761905Y-56484819D01*
X149285714Y-56484819D02*
X148714286Y-56484819D01*
X149000000Y-56484819D02*
X149000000Y-55484819D01*
X149000000Y-55484819D02*
X148904762Y-55627676D01*
X148904762Y-55627676D02*
X148809524Y-55722914D01*
X148809524Y-55722914D02*
X148714286Y-55770533D01*
X143158095Y-56854819D02*
X143158095Y-55854819D01*
X143729523Y-56854819D02*
X143300952Y-56283390D01*
X143729523Y-55854819D02*
X143158095Y-56426247D01*
D12*
%TO.C,J1*%
X133670000Y-101630000D02*
X135000000Y-101630000D01*
X133670000Y-102960000D02*
X133670000Y-101630000D01*
X133670000Y-104230000D02*
X133670000Y-109370000D01*
X133670000Y-104230000D02*
X136330000Y-104230000D01*
X133670000Y-109370000D02*
X136330000Y-109370000D01*
X136330000Y-104230000D02*
X136330000Y-109370000D01*
%TO.C,Q1*%
X132200000Y-89350000D02*
X135800000Y-89350000D01*
X132161522Y-89338478D02*
G75*
G02*
X134000000Y-84899999I1838478J1838478D01*
G01*
X134000000Y-84900000D02*
G75*
G02*
X135838478Y-89338478I0J-2600000D01*
G01*
%TO.C,R1*%
X146080000Y-67780000D02*
X152620000Y-67780000D01*
X146080000Y-68110000D02*
X146080000Y-67780000D01*
X146080000Y-70190000D02*
X146080000Y-70520000D01*
X146080000Y-70520000D02*
X152620000Y-70520000D01*
X152620000Y-67780000D02*
X152620000Y-68110000D01*
X152620000Y-70520000D02*
X152620000Y-70190000D01*
%TO.C,M1*%
X152670000Y-83130000D02*
X154000000Y-83130000D01*
X152670000Y-84460000D02*
X152670000Y-83130000D01*
X152670000Y-85730000D02*
X152670000Y-88330000D01*
X152670000Y-85730000D02*
X155330000Y-85730000D01*
X152670000Y-88330000D02*
X155330000Y-88330000D01*
X155330000Y-85730000D02*
X155330000Y-88330000D01*
%TO.C,R2*%
X146080000Y-71830000D02*
X152620000Y-71830000D01*
X146080000Y-72160000D02*
X146080000Y-71830000D01*
X146080000Y-74240000D02*
X146080000Y-74570000D01*
X146080000Y-74570000D02*
X152620000Y-74570000D01*
X152620000Y-71830000D02*
X152620000Y-72160000D01*
X152620000Y-74570000D02*
X152620000Y-74240000D01*
%TO.C,J2*%
X142670000Y-84395000D02*
X144000000Y-84395000D01*
X142670000Y-85725000D02*
X142670000Y-84395000D01*
X142670000Y-86995000D02*
X142670000Y-89595000D01*
X142670000Y-86995000D02*
X145330000Y-86995000D01*
X142670000Y-89595000D02*
X145330000Y-89595000D01*
X145330000Y-86995000D02*
X145330000Y-89595000D01*
%TO.C,A1*%
X103600000Y-66780000D02*
X103600000Y-69450000D01*
X103600000Y-71990000D02*
X103600000Y-110220000D01*
X103600000Y-110220000D02*
X108680000Y-110220000D01*
X106270000Y-69450000D02*
X103600000Y-69450000D01*
X106270000Y-71990000D02*
X103600000Y-71990000D01*
X106270000Y-71990000D02*
X106270000Y-69450000D01*
X106270000Y-71990000D02*
X106270000Y-107550000D01*
X106270000Y-107550000D02*
X103600000Y-107550000D01*
X108680000Y-102340000D02*
X116560000Y-102340000D01*
X108680000Y-112760000D02*
X108680000Y-102340000D01*
X116560000Y-102340000D02*
X116560000Y-112760000D01*
X116560000Y-112760000D02*
X108680000Y-112760000D01*
X118970000Y-69450000D02*
X118970000Y-107550000D01*
X118970000Y-69450000D02*
X121640000Y-69450000D01*
X118970000Y-107550000D02*
X121640000Y-107550000D01*
X121640000Y-66780000D02*
X103600000Y-66780000D01*
X121640000Y-110220000D02*
X116560000Y-110220000D01*
X121640000Y-110220000D02*
X121640000Y-66780000D01*
%TO.C,K1*%
X103100000Y-61000000D02*
X103100000Y-59700000D01*
X103300000Y-55600000D02*
X131500000Y-55600000D01*
X103300000Y-60800000D02*
X103300000Y-55600000D01*
X104400000Y-61000000D02*
X103100000Y-61000000D01*
X131500000Y-55600000D02*
X131500000Y-60800000D01*
X131500000Y-60800000D02*
X103300000Y-60800000D01*
%TO.C,D1*%
X144760000Y-58500000D02*
X145780000Y-58500000D01*
X145780000Y-57030000D02*
X145780000Y-59970000D01*
X145780000Y-59970000D02*
X151220000Y-59970000D01*
X146560000Y-57030000D02*
X146560000Y-59970000D01*
X146680000Y-57030000D02*
X146680000Y-59970000D01*
X146800000Y-57030000D02*
X146800000Y-59970000D01*
X151220000Y-57030000D02*
X145780000Y-57030000D01*
X151220000Y-59970000D02*
X151220000Y-57030000D01*
X152240000Y-58500000D02*
X151220000Y-58500000D01*
%TD*%
M02*
