%TF.GenerationSoftware,KiCad,Pcbnew,9.0.0*%
%TF.CreationDate,2025-03-30T19:28:59+05:30*%
%TF.ProjectId,soil_moisture,736f696c-5f6d-46f6-9973-747572652e6b,rev?*%
%TF.SameCoordinates,Original*%
%TF.FileFunction,Copper,L2,Bot*%
%TF.FilePolarity,Positive*%
%FSLAX46Y46*%
G04 Gerber Fmt 4.6, Leading zero omitted, Abs format (unit mm)*
G04 Created by KiCad (PCBNEW 9.0.0) date 2025-03-30 19:28:59*
%MOMM*%
%LPD*%
G01*
G04 APERTURE LIST*
%TA.AperFunction,ComponentPad*%
%ADD10R,1.700000X1.700000*%
%TD*%
%TA.AperFunction,ComponentPad*%
%ADD11O,1.700000X1.700000*%
%TD*%
%TA.AperFunction,ComponentPad*%
%ADD12R,1.050000X1.500000*%
%TD*%
%TA.AperFunction,ComponentPad*%
%ADD13O,1.050000X1.500000*%
%TD*%
%TA.AperFunction,ComponentPad*%
%ADD14C,1.600000*%
%TD*%
%TA.AperFunction,ComponentPad*%
%ADD15O,1.600000X1.600000*%
%TD*%
%TA.AperFunction,ComponentPad*%
%ADD16R,1.600000X1.600000*%
%TD*%
%TA.AperFunction,ComponentPad*%
%ADD17C,2.400000*%
%TD*%
%TA.AperFunction,ComponentPad*%
%ADD18R,2.000000X2.000000*%
%TD*%
%TA.AperFunction,ComponentPad*%
%ADD19C,2.000000*%
%TD*%
%TA.AperFunction,ComponentPad*%
%ADD20R,2.200000X2.200000*%
%TD*%
%TA.AperFunction,ComponentPad*%
%ADD21O,2.200000X2.200000*%
%TD*%
%TA.AperFunction,ViaPad*%
%ADD22C,0.600000*%
%TD*%
%TA.AperFunction,Conductor*%
%ADD23C,0.200000*%
%TD*%
G04 APERTURE END LIST*
D10*
%TO.P,J1,1,Pin_1*%
%TO.N,+12V*%
X135000000Y-102960000D03*
D11*
%TO.P,J1,2,Pin_2*%
%TO.N,GND*%
X135000000Y-105500000D03*
%TO.P,J1,3,Pin_3*%
%TO.N,Net-(A1-A0)*%
X135000000Y-108040000D03*
%TD*%
D12*
%TO.P,Q1,1,C*%
%TO.N,Net-(D1-A)*%
X132730000Y-87500000D03*
D13*
%TO.P,Q1,2,B*%
%TO.N,+12V*%
X134000000Y-87500000D03*
%TO.P,Q1,3,E*%
%TO.N,GND*%
X135270000Y-87500000D03*
%TD*%
D14*
%TO.P,R1,1*%
%TO.N,GND*%
X145540000Y-69150000D03*
D15*
%TO.P,R1,2*%
%TO.N,+12V*%
X153160000Y-69150000D03*
%TD*%
D10*
%TO.P,M1,1,+*%
%TO.N,Net-(M1-+)*%
X154000000Y-84460000D03*
D11*
%TO.P,M1,2,-*%
%TO.N,GND*%
X154000000Y-87000000D03*
%TD*%
D14*
%TO.P,R2,1*%
%TO.N,Net-(A1-D5)*%
X145540000Y-73200000D03*
D15*
%TO.P,R2,2*%
%TO.N,+12V*%
X153160000Y-73200000D03*
%TD*%
D10*
%TO.P,J2,1,Pin_1*%
%TO.N,+12V*%
X144000000Y-85725000D03*
D11*
%TO.P,J2,2,Pin_2*%
%TO.N,GND*%
X144000000Y-88265000D03*
%TD*%
D16*
%TO.P,A1,1,D1/TX*%
%TO.N,unconnected-(A1-D1{slash}TX-Pad1)*%
X105000000Y-70720000D03*
D15*
%TO.P,A1,2,D0/RX*%
%TO.N,unconnected-(A1-D0{slash}RX-Pad2)*%
X105000000Y-73260000D03*
%TO.P,A1,3,~{RESET}*%
%TO.N,unconnected-(A1-~{RESET}-Pad3)*%
X105000000Y-75800000D03*
%TO.P,A1,4,GND*%
%TO.N,GND*%
X105000000Y-78340000D03*
%TO.P,A1,5,D2*%
%TO.N,unconnected-(A1-D2-Pad5)*%
X105000000Y-80880000D03*
%TO.P,A1,6,D3*%
%TO.N,unconnected-(A1-D3-Pad6)*%
X105000000Y-83420000D03*
%TO.P,A1,7,D4*%
%TO.N,unconnected-(A1-D4-Pad7)*%
X105000000Y-85960000D03*
%TO.P,A1,8,D5*%
%TO.N,Net-(A1-D5)*%
X105000000Y-88500000D03*
%TO.P,A1,9,D6*%
%TO.N,unconnected-(A1-D6-Pad9)*%
X105000000Y-91040000D03*
%TO.P,A1,10,D7*%
%TO.N,unconnected-(A1-D7-Pad10)*%
X105000000Y-93580000D03*
%TO.P,A1,11,D8*%
%TO.N,unconnected-(A1-D8-Pad11)*%
X105000000Y-96120000D03*
%TO.P,A1,12,D9*%
%TO.N,unconnected-(A1-D9-Pad12)*%
X105000000Y-98660000D03*
%TO.P,A1,13,D10/CS*%
%TO.N,unconnected-(A1-D10{slash}CS-Pad13)*%
X105000000Y-101200000D03*
%TO.P,A1,14,D11/COPI*%
%TO.N,unconnected-(A1-D11{slash}COPI-Pad14)*%
X105000000Y-103740000D03*
%TO.P,A1,15,D12/CIPO*%
%TO.N,unconnected-(A1-D12{slash}CIPO-Pad15)*%
X105000000Y-106280000D03*
%TO.P,A1,16,D13/SCK*%
%TO.N,unconnected-(A1-D13{slash}SCK-Pad16)*%
X120240000Y-106280000D03*
%TO.P,A1,17,3V3*%
%TO.N,unconnected-(A1-3V3-Pad17)*%
X120240000Y-103740000D03*
%TO.P,A1,18,B0*%
%TO.N,unconnected-(A1-B0-Pad18)*%
X120240000Y-101200000D03*
%TO.P,A1,19,A0*%
%TO.N,Net-(A1-A0)*%
X120240000Y-98660000D03*
%TO.P,A1,20,A1*%
%TO.N,unconnected-(A1-A1-Pad20)*%
X120240000Y-96120000D03*
%TO.P,A1,21,A2*%
%TO.N,unconnected-(A1-A2-Pad21)*%
X120240000Y-93580000D03*
%TO.P,A1,22,A3*%
%TO.N,unconnected-(A1-A3-Pad22)*%
X120240000Y-91040000D03*
%TO.P,A1,23,SDA/A4*%
%TO.N,unconnected-(A1-SDA{slash}A4-Pad23)*%
X120240000Y-88500000D03*
%TO.P,A1,24,SCL/A5*%
%TO.N,unconnected-(A1-SCL{slash}A5-Pad24)*%
X120240000Y-85960000D03*
%TO.P,A1,25,A6*%
%TO.N,unconnected-(A1-A6-Pad25)*%
X120240000Y-83420000D03*
%TO.P,A1,26,A7*%
%TO.N,unconnected-(A1-A7-Pad26)*%
X120240000Y-80880000D03*
%TO.P,A1,27,VUSB/5V*%
%TO.N,unconnected-(A1-VUSB{slash}5V-Pad27)*%
X120240000Y-78340000D03*
%TO.P,A1,28,B1*%
%TO.N,unconnected-(A1-B1-Pad28)*%
X120240000Y-75800000D03*
%TO.P,A1,29,GND*%
%TO.N,GND*%
X120240000Y-73260000D03*
%TO.P,A1,30,VIN*%
%TO.N,+5V*%
X120240000Y-70720000D03*
%TD*%
D17*
%TO.P,K1,11*%
%TO.N,+12V*%
X124500000Y-57000000D03*
%TO.P,K1,12*%
%TO.N,unconnected-(K1-Pad12)*%
X119500000Y-57000000D03*
%TO.P,K1,14*%
%TO.N,Net-(M1-+)*%
X129500000Y-57000000D03*
D18*
%TO.P,K1,A1*%
%TO.N,+12V*%
X108250000Y-57000000D03*
D19*
%TO.P,K1,A2*%
%TO.N,Net-(D1-A)*%
X104500000Y-57000000D03*
%TD*%
D20*
%TO.P,D1,1,K*%
%TO.N,+12V*%
X143420000Y-58500000D03*
D21*
%TO.P,D1,2,A*%
%TO.N,Net-(D1-A)*%
X153580000Y-58500000D03*
%TD*%
D22*
%TO.N,Net-(A1-D5)*%
X126000000Y-85500000D03*
X143000000Y-70500000D03*
%TO.N,Net-(D1-A)*%
X124500000Y-77500000D03*
X153000000Y-63500000D03*
%TO.N,+12V*%
X131000000Y-92500000D03*
X143500000Y-82500000D03*
%TD*%
D23*
%TO.N,Net-(A1-D5)*%
X126000000Y-85500000D02*
X141000000Y-70500000D01*
X141000000Y-70500000D02*
X143000000Y-70500000D01*
%TO.N,Net-(D1-A)*%
X151500000Y-65000000D02*
X153000000Y-63500000D01*
X126000000Y-65000000D02*
X151500000Y-65000000D01*
X124500000Y-77500000D02*
X124500000Y-66500000D01*
X124500000Y-66500000D02*
X126000000Y-65000000D01*
%TO.N,+12V*%
X143500000Y-82500000D02*
X141500000Y-82500000D01*
X132000000Y-93500000D02*
X139500000Y-93500000D01*
X141500000Y-82500000D02*
X140500000Y-83500000D01*
X132000000Y-93500000D02*
X131000000Y-92500000D01*
X139500000Y-93500000D02*
X140500000Y-92500000D01*
X140500000Y-92500000D02*
X140500000Y-83500000D01*
%TD*%
M02*
