%TF.GenerationSoftware,KiCad,Pcbnew,9.0.0*%
%TF.CreationDate,2025-03-30T19:29:00+05:30*%
%TF.ProjectId,soil_moisture,736f696c-5f6d-46f6-9973-747572652e6b,rev?*%
%TF.SameCoordinates,Original*%
%TF.FileFunction,Soldermask,Top*%
%TF.FilePolarity,Negative*%
%FSLAX46Y46*%
G04 Gerber Fmt 4.6, Leading zero omitted, Abs format (unit mm)*
G04 Created by KiCad (PCBNEW 9.0.0) date 2025-03-30 19:29:00*
%MOMM*%
%LPD*%
G01*
G04 APERTURE LIST*
%ADD10R,1.700000X1.700000*%
%ADD11O,1.700000X1.700000*%
%ADD12R,1.050000X1.500000*%
%ADD13O,1.050000X1.500000*%
%ADD14C,1.600000*%
%ADD15O,1.600000X1.600000*%
%ADD16R,1.600000X1.600000*%
%ADD17C,2.400000*%
%ADD18R,2.000000X2.000000*%
%ADD19C,2.000000*%
%ADD20R,2.200000X2.200000*%
%ADD21O,2.200000X2.200000*%
G04 APERTURE END LIST*
D10*
%TO.C,J1*%
X135000000Y-102960000D03*
D11*
X135000000Y-105500000D03*
X135000000Y-108040000D03*
%TD*%
D12*
%TO.C,Q1*%
X132730000Y-87500000D03*
D13*
X134000000Y-87500000D03*
X135270000Y-87500000D03*
%TD*%
D14*
%TO.C,R1*%
X145540000Y-69150000D03*
D15*
X153160000Y-69150000D03*
%TD*%
D10*
%TO.C,M1*%
X154000000Y-84460000D03*
D11*
X154000000Y-87000000D03*
%TD*%
D14*
%TO.C,R2*%
X145540000Y-73200000D03*
D15*
X153160000Y-73200000D03*
%TD*%
D10*
%TO.C,J2*%
X144000000Y-85725000D03*
D11*
X144000000Y-88265000D03*
%TD*%
D16*
%TO.C,A1*%
X105000000Y-70720000D03*
D15*
X105000000Y-73260000D03*
X105000000Y-75800000D03*
X105000000Y-78340000D03*
X105000000Y-80880000D03*
X105000000Y-83420000D03*
X105000000Y-85960000D03*
X105000000Y-88500000D03*
X105000000Y-91040000D03*
X105000000Y-93580000D03*
X105000000Y-96120000D03*
X105000000Y-98660000D03*
X105000000Y-101200000D03*
X105000000Y-103740000D03*
X105000000Y-106280000D03*
X120240000Y-106280000D03*
X120240000Y-103740000D03*
X120240000Y-101200000D03*
X120240000Y-98660000D03*
X120240000Y-96120000D03*
X120240000Y-93580000D03*
X120240000Y-91040000D03*
X120240000Y-88500000D03*
X120240000Y-85960000D03*
X120240000Y-83420000D03*
X120240000Y-80880000D03*
X120240000Y-78340000D03*
X120240000Y-75800000D03*
X120240000Y-73260000D03*
X120240000Y-70720000D03*
%TD*%
D17*
%TO.C,K1*%
X124500000Y-57000000D03*
X119500000Y-57000000D03*
X129500000Y-57000000D03*
D18*
X108250000Y-57000000D03*
D19*
X104500000Y-57000000D03*
%TD*%
D20*
%TO.C,D1*%
X143420000Y-58500000D03*
D21*
X153580000Y-58500000D03*
%TD*%
M02*
