M48
; DRILL file {KiCad 9.0.0} date 2025-03-30T19:40:44+0530
; FORMAT={-:-/ absolute / metric / decimal}
; #@! TF.CreationDate,2025-03-30T19:40:44+05:30
; #@! TF.GenerationSoftware,Kicad,Pcbnew,9.0.0
; #@! TF.FileFunction,Plated,1,2,PTH
FMAT,2
METRIC
; #@! TA.AperFunction,Plated,PTH,ViaDrill
T1C0.300
; #@! TA.AperFunction,Plated,PTH,ComponentDrill
T2C0.750
; #@! TA.AperFunction,Plated,PTH,ComponentDrill
T3C0.800
; #@! TA.AperFunction,Plated,PTH,ComponentDrill
T4C1.000
; #@! TA.AperFunction,Plated,PTH,ComponentDrill
T5C1.100
; #@! TA.AperFunction,Plated,PTH,ComponentDrill
T6C1.300
%
G90
G05
T1
X124.5Y-77.5
X126.0Y-85.5
X131.0Y-92.5
X143.0Y-70.5
X143.5Y-82.5
X153.0Y-63.5
T2
X132.73Y-87.5
X134.0Y-87.5
X135.27Y-87.5
T3
X145.54Y-69.15
X145.54Y-73.2
X153.16Y-69.15
X153.16Y-73.2
T4
X104.5Y-57.0
X105.0Y-70.72
X105.0Y-73.26
X105.0Y-75.8
X105.0Y-78.34
X105.0Y-80.88
X105.0Y-83.42
X105.0Y-85.96
X105.0Y-88.5
X105.0Y-91.04
X105.0Y-93.58
X105.0Y-96.12
X105.0Y-98.66
X105.0Y-101.2
X105.0Y-103.74
X105.0Y-106.28
X108.25Y-57.0
X120.24Y-70.72
X120.24Y-73.26
X120.24Y-75.8
X120.24Y-78.34
X120.24Y-80.88
X120.24Y-83.42
X120.24Y-85.96
X120.24Y-88.5
X120.24Y-91.04
X120.24Y-93.58
X120.24Y-96.12
X120.24Y-98.66
X120.24Y-101.2
X120.24Y-103.74
X120.24Y-106.28
X135.0Y-102.96
X135.0Y-105.5
X135.0Y-108.04
X144.0Y-85.725
X144.0Y-88.265
X154.0Y-84.46
X154.0Y-87.0
T5
X143.42Y-58.5
X153.58Y-58.5
T6
X119.5Y-57.0
X124.5Y-57.0
X129.5Y-57.0
M30
